<svg xmlns="http://www.w3.org/2000/svg" width="34.333" height="21.67" viewBox="0 0 34.333 21.67">
  <g id="crystal-cloche-svgrepo-com" transform="translate(0 -69.153)">
    <path id="Tracé_326" data-name="Tracé 326" d="M23.3,86.186H52.532a.458.458,0,0,0,.458-.458A15.1,15.1,0,0,0,40,70.8a2.152,2.152,0,0,0-4.182,0,15.1,15.1,0,0,0-12.985,14.93A.458.458,0,0,0,23.3,86.186Zm3.615-6.728a10.893,10.893,0,0,1,3.506-4.091.6.6,0,0,1,.671.983A9.721,9.721,0,0,0,27.969,80a.6.6,0,0,1-1.058-.546Zm-1.4,4.179a12.208,12.208,0,0,1,.42-1.77.6.6,0,1,1,1.138.35,11.133,11.133,0,0,0-.379,1.58.6.6,0,1,1-1.179-.161Z" transform="translate(-20.747 0)" fill="#21055f"/>
    <path id="Tracé_327" data-name="Tracé 327" d="M32.735,270.911H1.6a1.6,1.6,0,0,0,0,3.2H32.735a1.6,1.6,0,0,0,0-3.2Z" transform="translate(0 -183.285)" fill="#21055f"/>
  </g>
</svg>
