<svg xmlns="http://www.w3.org/2000/svg" width="93.5" height="43.763" viewBox="0 0 93.5 43.763">
  <g id="Groupe_43" data-name="Groupe 43" transform="translate(0)">
    <circle id="Ellipse_27" data-name="Ellipse 27" cx="4.847" cy="4.847" r="4.847" transform="translate(77.562 16.812)" fill="#f30"/>
    <path id="Tracé_304" data-name="Tracé 304" d="M449.618,260.732H416.2l1.732-9.932h33.434Z" transform="translate(-411.846 -250.164)" fill="#f30"/>
    <path id="Tracé_305" data-name="Tracé 305" d="M394.378,435.1l-5.578,6.483,5.578,6.483,5.562-6.483Z" transform="translate(-388.8 -405.178)" fill="#f30"/>
    <path id="Tracé_306" data-name="Tracé 306" d="M426.816,325.059a38.164,38.164,0,0,0-19.2-11.759L406,322.532c10.52,2.94,18.8,13.348,18.8,23.216v.207h10.535v-.207c0-7.167-3.035-14.508-8.517-20.689Z" transform="translate(-403.267 -302.733)" fill="#21055f"/>
    <path id="Tracé_310" data-name="Tracé 310" d="M807.3,363.011V353h7.215v2.749h-4v.81h3.877v2.765H810.51v.795h4.052v2.892Z" transform="translate(-740.798 -336.124)" fill="#21055f"/>
    <g id="Groupe_42" data-name="Groupe 42" transform="translate(42.459 0)">
      <path id="Tracé_311" data-name="Tracé 311" d="M660.43,258.027H657.3V248h2.908l1.955,2.908L664.1,248h2.892v10.027h-3.13v-4.862l-1.525,2.225h-.4l-1.51-2.225v4.862Z" transform="translate(-657.093 -247.809)" fill="#21055f"/>
      <path id="Tracé_312" data-name="Tracé 312" d="M723.3,252.679v-1.3a5.523,5.523,0,0,1,.54-2.574,3.959,3.959,0,0,1,3.8-2,5.032,5.032,0,0,1,2.225.493c1.3.667,2.113,1.986,2.113,4.1v1.3a4.985,4.985,0,0,1-.572,2.574,4.048,4.048,0,0,1-3.782,1.97C724.889,257.224,723.3,255.826,723.3,252.679Zm5.276-.191v-.953c0-1.3-.206-1.827-.922-1.827s-.938.556-.938,1.827v.953c0,1.255.222,1.827.938,1.827C728.353,254.316,728.576,253.792,728.576,252.489Z" transform="translate(-712.606 -246.8)" fill="#21055f"/>
      <path id="Tracé_313" data-name="Tracé 313" d="M783,248.1h3.925c2.844,0,4.052.906,4.052,2.622a2.26,2.26,0,0,1-1.065,2.209,2.161,2.161,0,0,1,1.319,2.193c0,1.907-1.081,2.987-3.655,2.987H783Zm3.21,3.671h.89c.556,0,.715-.207.715-.588,0-.4-.175-.556-.715-.556h-.89Zm0,3.607h.747c.858,0,1-.207,1-.588s-.143-.62-1-.62h-.747Z" transform="translate(-762.819 -247.893)" fill="#21055f"/>
      <path id="Tracé_314" data-name="Tracé 314" d="M837.8,255.092h1.51v-3.973H837.8V248.1h6.261v3.019h-1.51v3.973h1.51v3.019H837.8Z" transform="translate(-808.911 -247.893)" fill="#21055f"/>
      <path id="Tracé_315" data-name="Tracé 315" d="M882.7,248.1h3.385v6.769h3.591v3.258H882.7V248.1Z" transform="translate(-846.676 -247.893)" fill="#21055f"/>
      <path id="Tracé_316" data-name="Tracé 316" d="M931.5,258.027V248h7.214v2.749h-4v.81h3.877v2.765H934.71v.794h4.052v2.892l-7.262.016Z" transform="translate(-887.721 -247.809)" fill="#21055f"/>
      <path id="Tracé_317" data-name="Tracé 317" d="M657.3,353h3.385v6.769h3.591v3.242H657.3V353Z" transform="translate(-657.093 -336.124)" fill="#21055f"/>
      <path id="Tracé_318" data-name="Tracé 318" d="M705.8,359.992h1.51v-3.973H705.8V353h6.261v3.019h-1.509v3.973h1.509v3.019H705.8Z" transform="translate(-697.886 -336.124)" fill="#21055f"/>
      <path id="Tracé_319" data-name="Tracé 319" d="M746.4,353h3.385l1.335,5.2,1.287-5.2h3.369l-3.019,10.011h-3.305Z" transform="translate(-732.035 -336.124)" fill="#21055f"/>
      <path id="Tracé_320" data-name="Tracé 320" d="M656,462.48v-1.3a5.523,5.523,0,0,1,.54-2.574,3.959,3.959,0,0,1,3.8-2,5.025,5.025,0,0,1,2.225.477c1.3.667,2.113,1.986,2.113,4.1v1.3a5.021,5.021,0,0,1-.572,2.574,4.047,4.047,0,0,1-3.782,1.97C657.589,467.024,656,465.626,656,462.48Zm5.26-.191v-.953c0-1.3-.207-1.827-.922-1.827s-.937.556-.937,1.827v.953c0,1.255.222,1.827.938,1.827S661.26,463.592,661.26,462.289Z" transform="translate(-656 -423.262)" fill="#21055f"/>
      <path id="Tracé_321" data-name="Tracé 321" d="M718.91,467.911H715.7V457.9h4.211a5.75,5.75,0,0,1,2.352.4,2.826,2.826,0,0,1,1.684,2.8,2.679,2.679,0,0,1-1.239,2.479,2.124,2.124,0,0,1,1,2.1v1.653a.759.759,0,0,0,.254.588h-3.289a.688.688,0,0,1-.254-.636v-1.446c0-.779-.27-.985-.953-.985h-.556v3.067Zm0-5.848h.922c.62,0,.826-.334.826-.731,0-.429-.238-.715-.826-.715h-.922Z" transform="translate(-706.213 -424.355)" fill="#21055f"/>
      <path id="Tracé_322" data-name="Tracé 322" d="M775.909,457.9a5.557,5.557,0,0,1,2.225.445c1.3.6,2.113,1.843,2.113,3.941v1.255a4.861,4.861,0,0,1-.572,2.543,4.072,4.072,0,0,1-3.766,1.843H772V457.916h3.909Zm-.636,7.183h.445c.715,0,1.192-.493,1.192-1.907v-.6c0-1.43-.477-1.907-1.192-1.907h-.445Z" transform="translate(-753.567 -424.355)" fill="#21055f"/>
      <path id="Tracé_323" data-name="Tracé 323" d="M829,467.911V457.9h7.214v2.749h-4v.81h3.877v2.765H832.21v.794h4.052v2.892Z" transform="translate(-801.509 -424.355)" fill="#21055f"/>
      <path id="Tracé_324" data-name="Tracé 324" d="M883.21,467.911H880V457.9h4.211a5.75,5.75,0,0,1,2.352.4,2.826,2.826,0,0,1,1.684,2.8,2.679,2.679,0,0,1-1.24,2.479,2.123,2.123,0,0,1,1,2.1v1.653a.759.759,0,0,0,.254.588h-3.289a.688.688,0,0,1-.254-.636v-1.446c0-.779-.27-.985-.953-.985h-.556v3.067Zm0-5.848h.922c.62,0,.826-.334.826-.731,0-.429-.238-.715-.826-.715h-.922Z" transform="translate(-844.405 -424.355)" fill="#21055f"/>
    </g>
  </g>
</svg>
